# xmcd CD database file
#
# Track frame offsets:
#	150
#	2358
#	36903
#	82880
#	118107
#	142604
#	143985
#	165511
#	208077
#	227190
#
# Disc length: 3613 seconds
#
# Revision: 0
# Processed by: cddbd v1.5.2PL0 Copyright (c) Steve Scherf et al.
# Submitted via: CDex 1.51
#
DISCID=780e1b0a
DTITLE=Marco Tamburini - Isole
DYEAR=2007
DGENRE=Jazz
TTITLE0=Marco Tamburini - Nebbie (Intro)
TTITLE1=Marco Tamburini - Isole
TTITLE2=Marco Tamburini - Napoli
TTITLE3=Marco Tamburini - Rifugi
TTITLE4=Marco Tamburini - Milano Escape
TTITLE5=Marco Tamburini - Nebbie (Interlude)
TTITLE6=Marco Tamburini - Ostuni
TTITLE7=Marco Tamburini - All of you
TTITLE8=Marco Tamburini - Nebbie (Coda)
TTITLE9=Marco Tamburini - In viaggio
EXTD=YEAR: 2007
EXTT0=
EXTT1=
EXTT2=
EXTT3=
EXTT4=
EXTT5=
EXTT6=
EXTT7=
EXTT8=
EXTT9=
PLAYORDER=
